<?xml version="1.0" encoding="utf-8"?>
<!-- Generator: Adobe Illustrator 15.0.0, SVG Export Plug-In . SVG Version: 6.00 Build 0)  -->
<!DOCTYPE svg PUBLIC "-//W3C//DTD SVG 1.1//EN" "http://www.w3.org/Graphics/SVG/1.1/DTD/svg11.dtd">
<svg version="1.1" id="Calque_1" xmlns="http://www.w3.org/2000/svg" xmlns:xlink="http://www.w3.org/1999/xlink" x="0px" y="0px"
	 width="250px" height="231px" viewBox="0 0 250 231" enable-background="new 0 0 250 231" xml:space="preserve">
<g>
	<g>
		<circle fill="none" cx="125.03" cy="106.408" r="104.609"/>
		<path fill="#FFFFFF" d="M199.012,204.297l4.971-3.676l1.318,1.793l-12.089,8.939l-1.323-1.791l4.993-3.693l-10.753-14.539
			l2.133-1.576L199.012,204.297z"/>
		<path fill="#FFFFFF" d="M186.934,215.043l-3.922-7.537l-8.715,4.533l3.924,7.537l-2.354,1.228l-9.375-18.017l2.352-1.228
			l4.396,8.448l8.718-4.533l-4.396-8.446l2.352-1.227l9.374,18.018L186.934,215.043z"/>
		<path fill="#FFFFFF" d="M156.036,216.402l7.461-2.486l-2.313-6.946l-8.349,2.78l-0.694-2.086l10.863-3.615l6.414,19.27
			l-10.436,3.475l-0.695-2.084l7.919-2.641l-2.024-6.091l-7.465,2.485L156.036,216.402z"/>
		<path fill="#FFFFFF" d="M127.409,220.14c0.389,2.812,0.856,6.22,1.065,8.716l0.057-0.004c0.525-2.405,1.121-5.027,1.91-7.904
			l2.75-10.123l1.98-0.168l4.112,9.366c1.205,2.804,2.202,5.321,2.976,7.679l0.059-0.01c-0.152-2.527-0.284-5.904-0.36-8.982
			l-0.187-8.725l2.492-0.208l0.284,20.364l-3.331,0.279l-4.273-9.504c-1.053-2.422-1.901-4.592-2.617-6.646l-0.061,0.004
			c-0.369,2.088-0.902,4.372-1.59,7.001l-2.783,10.091l-3.332,0.28l-2.961-20.14l2.581-0.217L127.409,220.14z"/>
		<path fill="#FFFFFF" d="M116.868,217.164l2.764-6.127l2.696,0.283l-9.015,19.458l-3.113-0.327l-4.761-20.908l2.785,0.291
			l1.488,6.574L116.868,217.164z M110.003,218.498l1.394,6.021c0.31,1.367,0.484,2.596,0.66,3.796l0.059,0.004
			c0.424-1.137,0.856-2.359,1.403-3.545l2.594-5.63L110.003,218.498z"/>
		<path fill="#FFFFFF" d="M98.115,228.269c-1.343-0.112-3.251-0.437-4.966-0.901c-2.705-0.727-4.337-1.73-5.242-3.129
			c-0.723-1.129-0.946-2.623-0.529-4.166c0.69-2.56,2.783-3.837,5.005-3.988l0.023-0.088c-1.343-0.92-1.868-2.56-1.785-4.724
			c0.099-2.907,0.141-4.919-0.062-5.786l2.62,0.703c0.163,0.668,0.152,2.445,0.018,5.032c-0.146,2.858,0.654,4.168,2.931,4.872
			l2.384,0.643l2.289-8.494l2.529,0.682L98.115,228.269z M97.991,218.66l-2.589-0.699c-2.704-0.729-4.82,0.293-5.424,2.533
			c-0.682,2.53,0.853,4.129,3.528,4.851c1.221,0.329,2.09,0.471,2.558,0.471L97.991,218.66z"/>
		<path fill="#FFFFFF" d="M80.285,223.217l-2.401-1.053l3.932-8.972l-0.084-0.034c-0.811,0.5-1.597,0.941-2.335,1.344l-8.744,4.49
			l-2.981-1.304l10.191-4.942l-2.566-13.89l2.841,1.245l2.099,11.805l2.689-1.255l3.106-7.089l2.401,1.049L80.285,223.217z"/>
		<path fill="#FFFFFF" d="M61,213.803l6.576-10.102c2.466-3.793,1.826-6.508-0.449-7.99c-2.5-1.625-5.225-1.026-7.659,2.707
			l-6.578,10.108l-2.223-1.444l6.48-9.957c3.402-5.228,7.539-5.557,11.224-3.155c3.488,2.267,4.831,5.946,1.38,11.254l-6.527,10.028
			L61,213.803z"/>
		<path fill="#FFFFFF" d="M45.415,202.523c-1.078-0.695-2.425-1.676-3.984-3.093c-1.918-1.742-2.919-3.462-3.081-5.078
			c-0.155-1.438,0.326-2.999,1.542-4.338c1.235-1.36,2.609-2.065,4.077-2.157c2.041-0.141,4.197,0.801,6.091,2.523
			c0.578,0.527,1.096,1.033,1.44,1.553l5.468-6.021l1.941,1.766L45.415,202.523z M50.059,193.513
			c-0.324-0.496-0.818-1.023-1.462-1.61c-2.341-2.129-4.82-2.267-6.664-0.234c-1.823,2.004-1.266,4.261,0.851,6.185
			c0.846,0.771,1.553,1.29,1.97,1.502L50.059,193.513z"/>
		<path fill="#FFFFFF" d="M27.46,184.571l-1.577-2.135l14.564-10.769l-5.161-6.979l1.771-1.306l6.736,9.109L27.46,184.571z"/>
		<path fill="#FFFFFF" d="M17.187,169.486l17.408-10.449l1.363,2.271l-17.406,10.449L17.187,169.486z"/>
		<path fill="#FFFFFF" d="M14.322,163.957c-0.726-0.926-1.66-2.519-2.419-4.156c-1.101-2.379-1.397-4.104-0.986-5.651
			c0.271-1.286,1.087-2.396,2.536-3.063c1.805-0.83,3.919-0.349,5.489,1.25l0.082-0.041c-0.399-1.937,0.103-4.659,2.838-5.924
			c1.588-0.733,3.109-0.672,4.426-0.117c1.759,0.713,3.266,2.539,4.655,5.545c0.758,1.643,1.229,2.951,1.486,3.796L14.322,163.957z
			 M20.771,158.094l-0.999-2.162c-1.151-2.492-3.173-3.35-4.95-2.53c-2.133,0.986-2.263,3.007-1.153,5.412
			c0.506,1.095,0.877,1.687,1.137,2.033L20.771,158.094z M29.579,154.021c-0.146-0.527-0.42-1.197-0.813-2.046
			c-1.137-2.463-3.087-4.313-5.769-3.078c-2.487,1.149-2.556,3.806-1.356,6.404l0.911,1.971L29.579,154.021z"/>
		<path fill="#FFFFFF" d="M6.977,146.916c-0.601-1.203-1.313-3.004-1.812-4.711c-0.782-2.689-0.774-4.604-0.052-6.104
			c0.59-1.207,1.754-2.174,3.287-2.622c2.547-0.739,4.724,0.381,6.009,2.205l0.086-0.024c0.093-1.627,1.219-2.931,3.112-3.98
			c2.535-1.432,4.28-2.439,4.913-3.065l0.758,2.604c-0.485,0.49-2.008,1.402-4.287,2.631c-2.522,1.361-3.224,2.729-2.646,5.043
			l0.69,2.367l8.448-2.458l0.731,2.519L6.977,146.916z M15.127,141.819l-0.748-2.575c-0.781-2.689-2.754-3.968-4.983-3.322
			c-2.517,0.734-3.085,2.877-2.311,5.537c0.354,1.211,0.685,2.028,0.927,2.429L15.127,141.819z"/>
		<path fill="#FFFFFF" d="M15.331,123.832l6.598,1.304l0.335,2.694l-21.013-4.375l-0.385-3.113l19.304-9.384l0.344,2.78
			l-6.071,2.941L15.331,123.832z M12.47,117.446l-5.553,2.724c-1.262,0.613-2.419,1.062-3.55,1.508l0.007,0.057
			c1.204,0.153,2.496,0.299,3.775,0.563l6.077,1.248L12.47,117.446z"/>
		<path fill="#FFFFFF" d="M0.268,108.054c-0.196-1.33-0.312-3.265-0.251-5.041c0.095-2.8,0.697-4.618,1.853-5.815
			c0.937-0.966,2.341-1.521,3.938-1.468c2.648,0.09,4.371,1.832,5.019,3.967l0.09,0.002c0.594-1.517,2.071-2.401,4.195-2.813
			c2.852-0.568,4.825-0.984,5.623-1.379l-0.09,2.708c-0.613,0.312-2.346,0.707-4.894,1.162c-2.819,0.512-3.91,1.591-4.081,3.963
			l-0.083,2.47l8.792,0.293l-0.088,2.62L0.268,108.054z M9.598,105.744l0.09-2.678c0.095-2.802-1.382-4.631-3.7-4.706
			c-2.619-0.085-3.828,1.772-3.92,4.541c-0.044,1.265,0.019,2.144,0.125,2.596L9.598,105.744z"/>
		<path fill="#FFFFFF" d="M21.833,89.146l-8.477-1.517L0.719,91.914l0.529-2.964l6.018-1.83c1.643-0.471,2.973-0.873,4.477-1.247
			l0.011-0.061c-1.208-0.768-2.384-1.712-3.759-2.753l-5-3.86l0.521-2.905l10.278,8.722l8.504,1.522L21.833,89.146z"/>
	</g>
	<g>
		<circle fill="none" cx="125.03" cy="106.406" r="105.094"/>
		<path fill="#FFFFFF" d="M220.229,24.816c0.949,0.872,2.113,2.073,3.418,3.744c1.6,2.053,2.295,3.93,2.177,5.553
			c-0.095,1.455-0.835,2.915-2.267,4.033c-1.457,1.134-2.938,1.598-4.406,1.438c-2.043-0.21-4.017-1.511-5.601-3.54
			c-0.483-0.622-0.901-1.213-1.155-1.782l-6.445,5.021l-1.62-2.075L220.229,24.816z M214.093,32.938
			c0.232,0.548,0.63,1.156,1.169,1.849c1.956,2.506,4.389,3.067,6.559,1.376c2.15-1.676,1.98-4.003,0.22-6.27
			c-0.706-0.906-1.315-1.542-1.69-1.828L214.093,32.938z"/>
		<path fill="#FFFFFF" d="M219.479,47.002l-6.608,1.413l-1.377-2.351l21.131-4.292l1.592,2.72l-14.104,16.312l-1.42-2.43
			l4.441-5.123L219.479,47.002z M224.646,51.769l4.045-4.717c0.918-1.063,1.813-1.935,2.68-2.794l-0.031-0.051
			c-1.174,0.335-2.419,0.714-3.708,0.975l-6.108,1.255L224.646,51.769z"/>
		<path fill="#FFFFFF" d="M238.173,57.488l-2.396-5.718l2.063-0.866l5.852,13.919l-2.068,0.867l-2.415-5.745l-16.735,7.032
			l-1.029-2.454L238.173,57.488z"/>
		<path fill="#FFFFFF" d="M244.127,74.565l-1.54-6.007L244.755,68l3.743,14.625l-2.168,0.555l-1.547-6.036L227.2,81.646
			l-0.657-2.577L244.127,74.565z"/>
		<path fill="#FFFFFF" d="M248.925,87.037c0.386,1.299,0.772,3.204,0.966,4.979c0.309,2.799-0.035,4.694-1.016,6.051
			c-0.794,1.09-2.111,1.844-3.708,2.02c-2.647,0.285-4.61-1.204-5.558-3.235l-0.092,0.01c-0.375,1.597-1.72,2.685-3.773,3.398
			c-2.758,0.968-4.664,1.664-5.405,2.17l-0.288-2.71c0.564-0.397,2.231-1.035,4.701-1.854c2.734-0.908,3.663-2.136,3.498-4.523
			l-0.268-2.469l-8.795,0.957l-0.28-2.618L248.925,87.037z M239.965,90.662l0.294,2.679c0.308,2.799,2.031,4.409,4.353,4.158
			c2.617-0.285,3.557-2.308,3.255-5.075c-0.14-1.268-0.326-2.13-0.492-2.566L239.965,90.662z"/>
	</g>
	<polygon fill="#DD2A2C" points="240.896,159.421 232.473,159.654 227.888,166.728 225.062,158.789 216.919,156.617 
		223.594,151.474 223.147,143.06 230.099,147.82 237.966,144.792 235.585,152.876 	"/>
	<g>
		<path fill="#DD2A2C" d="M168.842,69.667c0-9.692-2.746-16.813-8.242-21.359c-5.498-4.543-13.785-6.814-24.86-6.814h-23.762v56.733
			h23.761C157.811,98.23,168.842,88.708,168.842,69.667z"/>
		<path fill="#DD2A2C" d="M73.287,31.46c-23.061,16.511-38.093,43.525-38.093,74.051c0,30.527,15.032,57.537,38.093,74.05V31.46z"/>
		<path fill="#DD2A2C" d="M208.641,66.924c0.034,0.906,0.063,1.818,0.063,2.745c0,8.483-1.543,16.21-4.622,23.175
			c-3.082,6.971-7.571,12.964-13.474,17.982c-5.905,5.021-13.217,8.894-21.938,11.621c-8.72,2.725-18.723,4.088-30.005,4.088
			h-26.688v68.877c4.635,0.729,9.384,1.108,14.222,1.108c50.264,0,91.009-40.748,91.009-91.007
			C217.207,91.715,214.133,78.639,208.641,66.924z"/>
	</g>
</g>
</svg>
