<?xml version="1.0" encoding="utf-8"?>
<!-- Generator: Adobe Illustrator 15.0.0, SVG Export Plug-In . SVG Version: 6.00 Build 0)  -->
<!DOCTYPE svg PUBLIC "-//W3C//DTD SVG 1.1//EN" "http://www.w3.org/Graphics/SVG/1.1/DTD/svg11.dtd">
<svg version="1.1" id="Calque_1" xmlns="http://www.w3.org/2000/svg" xmlns:xlink="http://www.w3.org/1999/xlink" x="0px" y="0px"
	 width="250px" height="231px" viewBox="-49.5 -46.5 250 231" enable-background="new -49.5 -46.5 250 231" xml:space="preserve">
<g>
	<circle fill="none" cx="75.53" cy="58.93" r="104.609"/>
	<path fill="#FFFFFF" d="M149.512,156.818l4.97-3.675l1.319,1.792l-12.089,8.94l-1.324-1.791l4.994-3.694l-10.753-14.539
		l2.133-1.576L149.512,156.818z"/>
	<path fill="#FFFFFF" d="M137.433,167.564l-3.922-7.536l-8.714,4.533l3.924,7.536l-2.355,1.228l-9.375-18.017l2.352-1.227
		l4.396,8.448l8.717-4.533l-4.396-8.446l2.352-1.227l9.374,18.018L137.433,167.564z"/>
	<path fill="#FFFFFF" d="M106.536,168.924l7.461-2.487l-2.313-6.946l-8.349,2.78l-0.695-2.085l10.864-3.615l6.414,19.269
		l-10.436,3.474l-0.695-2.083l7.919-2.641l-2.025-6.091l-7.464,2.485L106.536,168.924z"/>
	<path fill="#FFFFFF" d="M77.909,172.661c0.389,2.812,0.856,6.22,1.065,8.716l0.057-0.004c0.526-2.405,1.122-5.028,1.91-7.904
		l2.75-10.123l1.981-0.168l4.112,9.366c1.205,2.804,2.203,5.321,2.976,7.679l0.058-0.01c-0.152-2.527-0.284-5.904-0.36-8.982
		l-0.186-8.725l2.492-0.208l0.284,20.364l-3.331,0.279l-4.274-9.504c-1.053-2.422-1.901-4.591-2.617-6.646l-0.061,0.004
		c-0.369,2.088-0.902,4.372-1.589,7.001l-2.784,10.091l-3.331,0.28l-2.962-20.14l2.581-0.217L77.909,172.661z"/>
	<path fill="#FFFFFF" d="M67.368,169.685l2.764-6.127l2.696,0.284L63.813,183.3l-3.113-0.328l-4.761-20.908l2.785,0.291l1.488,6.574
		L67.368,169.685z M60.503,171.019l1.394,6.021c0.31,1.367,0.484,2.596,0.66,3.796l0.059,0.004c0.424-1.137,0.856-2.359,1.403-3.545
		l2.594-5.63L60.503,171.019z"/>
	<path fill="#FFFFFF" d="M48.615,180.79c-1.343-0.112-3.251-0.437-4.966-0.902c-2.705-0.726-4.337-1.73-5.242-3.128
		c-0.723-1.129-0.946-2.623-0.529-4.166c0.69-2.56,2.783-3.837,5.005-3.988l0.023-0.088c-1.343-0.921-1.868-2.56-1.785-4.724
		c0.099-2.907,0.141-4.919-0.062-5.786l2.62,0.703c0.163,0.668,0.152,2.445,0.018,5.032c-0.146,2.858,0.654,4.168,2.931,4.872
		l2.384,0.643l2.289-8.495l2.529,0.683L48.615,180.79z M48.491,171.181l-2.589-0.699c-2.704-0.728-4.82,0.294-5.424,2.533
		c-0.682,2.531,0.853,4.13,3.528,4.851c1.221,0.33,2.09,0.471,2.558,0.471L48.491,171.181z"/>
	<path fill="#FFFFFF" d="M30.785,175.738l-2.401-1.053l3.932-8.971l-0.084-0.035c-0.811,0.5-1.597,0.942-2.335,1.344l-8.744,4.491
		l-2.981-1.304l10.191-4.942l-2.566-13.89l2.841,1.245l2.099,11.805l2.689-1.255l3.106-7.089l2.401,1.049L30.785,175.738z"/>
	<path fill="#FFFFFF" d="M11.5,166.324l6.576-10.102c2.466-3.792,1.826-6.507-0.449-7.989c-2.5-1.626-5.225-1.027-7.659,2.707
		L3.39,161.048l-2.223-1.444l6.48-9.957c3.402-5.228,7.539-5.557,11.224-3.156c3.488,2.267,4.831,5.947,1.38,11.254l-6.527,10.028
		L11.5,166.324z"/>
	<path fill="#FFFFFF" d="M-4.085,155.045c-1.078-0.696-2.425-1.676-3.984-3.093c-1.918-1.742-2.919-3.462-3.081-5.078
		c-0.155-1.439,0.326-2.999,1.542-4.338c1.235-1.36,2.609-2.066,4.077-2.157c2.041-0.141,4.197,0.801,6.091,2.523
		c0.578,0.527,1.096,1.033,1.44,1.553l5.468-6.021l1.941,1.765L-4.085,155.045z M0.559,146.034c-0.324-0.496-0.818-1.023-1.462-1.61
		c-2.341-2.129-4.82-2.267-6.664-0.235c-1.823,2.004-1.266,4.261,0.851,6.185c0.846,0.771,1.553,1.29,1.97,1.502L0.559,146.034z"/>
	<path fill="#FFFFFF" d="M-22.04,137.093l-1.577-2.135l14.564-10.768l-5.161-6.98l1.771-1.305l6.736,9.108L-22.04,137.093z"/>
	<path fill="#FFFFFF" d="M-32.313,122.008l17.408-10.449l1.363,2.271l-17.406,10.449L-32.313,122.008z"/>
	<path fill="#FFFFFF" d="M-35.178,116.479c-0.726-0.926-1.66-2.519-2.419-4.157c-1.101-2.379-1.397-4.104-0.986-5.651
		c0.271-1.286,1.087-2.395,2.536-3.064c1.805-0.83,3.919-0.348,5.489,1.25l0.082-0.04c-0.399-1.937,0.103-4.66,2.838-5.925
		c1.588-0.733,3.109-0.672,4.426-0.117c1.759,0.713,3.266,2.539,4.655,5.545c0.758,1.643,1.229,2.952,1.486,3.796L-35.178,116.479z
		 M-28.729,110.615l-0.999-2.162c-1.151-2.492-3.173-3.35-4.95-2.53c-2.133,0.986-2.263,3.007-1.153,5.412
		c0.506,1.095,0.877,1.686,1.137,2.033L-28.729,110.615z M-19.921,106.543c-0.146-0.527-0.42-1.198-0.813-2.046
		c-1.137-2.463-3.087-4.313-5.769-3.078c-2.487,1.15-2.556,3.805-1.356,6.404l0.911,1.971L-19.921,106.543z"/>
	<path fill="#FFFFFF" d="M-42.523,99.438c-0.601-1.204-1.313-3.005-1.812-4.712c-0.782-2.689-0.774-4.604-0.052-6.103
		c0.59-1.207,1.754-2.174,3.287-2.622c2.547-0.74,4.724,0.381,6.009,2.205l0.086-0.025c0.093-1.627,1.219-2.93,3.112-3.98
		c2.535-1.431,4.28-2.439,4.913-3.065l0.758,2.604c-0.485,0.49-2.008,1.402-4.287,2.631c-2.522,1.361-3.224,2.728-2.646,5.043
		l0.69,2.367l8.448-2.458l0.731,2.519L-42.523,99.438z M-34.373,94.341l-0.748-2.575c-0.781-2.69-2.754-3.968-4.983-3.322
		c-2.517,0.734-3.085,2.876-2.311,5.536c0.354,1.212,0.685,2.029,0.927,2.429L-34.373,94.341z"/>
	<path fill="#FFFFFF" d="M-34.169,76.354l6.598,1.303l0.335,2.694l-21.013-4.374l-0.385-3.114l19.304-9.384l0.344,2.78l-6.071,2.941
		L-34.169,76.354z M-37.03,69.968l-5.553,2.723c-1.262,0.613-2.419,1.062-3.55,1.508l0.007,0.057
		c1.204,0.153,2.496,0.298,3.775,0.562l6.077,1.248L-37.03,69.968z"/>
	<path fill="#FFFFFF" d="M-49.232,60.575c-0.196-1.33-0.312-3.265-0.251-5.041c0.095-2.8,0.697-4.618,1.853-5.815
		c0.937-0.966,2.341-1.521,3.938-1.468c2.648,0.09,4.371,1.832,5.019,3.967l0.09,0.002c0.594-1.517,2.071-2.401,4.195-2.813
		c2.852-0.568,4.825-0.984,5.623-1.379l-0.09,2.708c-0.613,0.312-2.346,0.707-4.894,1.162c-2.819,0.512-3.91,1.591-4.081,3.963
		l-0.083,2.47l8.792,0.293l-0.088,2.62L-49.232,60.575z M-39.902,58.265l0.09-2.678c0.095-2.802-1.382-4.631-3.7-4.706
		c-2.619-0.085-3.828,1.772-3.92,4.541c-0.044,1.265,0.019,2.144,0.125,2.596L-39.902,58.265z"/>
	<path fill="#FFFFFF" d="M-27.667,41.667l-8.477-1.517l-12.637,4.285l0.529-2.964l6.018-1.83c1.643-0.471,2.973-0.873,4.477-1.247
		l0.011-0.061c-1.208-0.768-2.384-1.712-3.759-2.753l-5-3.86l0.521-2.905l10.278,8.722l8.504,1.522L-27.667,41.667z"/>
</g>
<g>
	<circle fill="none" cx="75.53" cy="58.927" r="105.094"/>
	<path fill="#FFFFFF" d="M170.729-22.662c0.949,0.872,2.113,2.073,3.418,3.744c1.599,2.053,2.294,3.93,2.176,5.553
		c-0.094,1.455-0.835,2.915-2.266,4.033c-1.458,1.134-2.938,1.598-4.406,1.438c-2.043-0.21-4.017-1.511-5.601-3.54
		c-0.483-0.622-0.902-1.213-1.155-1.782l-6.446,5.021l-1.62-2.075L170.729-22.662z M164.593-14.541
		c0.232,0.548,0.63,1.156,1.168,1.849c1.957,2.506,4.389,3.067,6.559,1.376c2.151-1.676,1.981-4.003,0.22-6.27
		c-0.706-0.906-1.316-1.542-1.69-1.828L164.593-14.541z"/>
	<path fill="#FFFFFF" d="M169.978-0.476l-6.608,1.413l-1.377-2.351l21.131-4.292l1.592,2.72l-14.104,16.312l-1.421-2.43l4.442-5.123
		L169.978-0.476z M175.147,4.29l4.045-4.717c0.918-1.063,1.812-1.935,2.679-2.794l-0.031-0.051
		c-1.174,0.335-2.419,0.714-3.708,0.975l-6.109,1.255L175.147,4.29z"/>
	<path fill="#FFFFFF" d="M188.673,10.01l-2.396-5.718l2.063-0.866l5.851,13.919l-2.068,0.867l-2.415-5.745l-16.736,7.032
		l-1.029-2.454L188.673,10.01z"/>
	<path fill="#FFFFFF" d="M194.627,27.087l-1.54-6.007l2.168-0.558l3.743,14.625l-2.168,0.555l-1.547-6.036L177.7,34.168
		l-0.657-2.577L194.627,27.087z"/>
	<path fill="#FFFFFF" d="M199.425,39.558c0.385,1.299,0.772,3.204,0.966,4.979c0.308,2.799-0.036,4.694-1.016,6.051
		c-0.794,1.09-2.112,1.844-3.708,2.02c-2.647,0.285-4.611-1.204-5.558-3.235l-0.091,0.01c-0.375,1.597-1.72,2.685-3.774,3.398
		c-2.757,0.968-4.664,1.664-5.405,2.17l-0.288-2.71c0.564-0.397,2.231-1.035,4.701-1.854c2.735-0.908,3.663-2.136,3.498-4.523
		l-0.267-2.469l-8.795,0.957l-0.281-2.618L199.425,39.558z M190.465,43.183l0.294,2.679c0.307,2.799,2.031,4.409,4.352,4.158
		c2.618-0.285,3.557-2.308,3.255-5.075c-0.14-1.268-0.326-2.13-0.492-2.566L190.465,43.183z"/>
</g>
<polygon fill="#DD2A2C" points="189.969,117.508 181.546,117.741 176.961,124.815 174.135,116.876 165.992,114.704 172.667,109.561 
	172.221,101.146 179.172,105.907 187.039,102.879 184.658,110.963 "/>
<g>
	<path fill="#DD2A2C" d="M119.342,22.189c0-9.692-2.747-16.813-8.242-21.359c-5.498-4.543-13.786-6.814-24.861-6.814H62.477v56.733
		h23.762C108.311,50.752,119.342,41.229,119.342,22.189z"/>
	<path fill="#DD2A2C" d="M23.787-16.018C0.726,0.493-14.306,27.507-14.306,58.033c0,30.527,15.032,57.538,38.093,74.05V-16.018z"/>
	<path fill="#DD2A2C" d="M159.14,19.446c0.035,0.906,0.063,1.818,0.063,2.745c0,8.483-1.543,16.21-4.622,23.175
		c-3.082,6.971-7.571,12.964-13.473,17.982c-5.906,5.021-13.217,8.894-21.938,11.621c-8.72,2.724-18.723,4.088-30.005,4.088H62.477
		v68.877c4.635,0.729,9.384,1.108,14.222,1.108c50.264,0,91.009-40.748,91.009-91.007C167.707,44.237,164.633,31.16,159.14,19.446z"
		/>
</g>
</svg>
