<?xml version="1.0" encoding="utf-8"?>
<!-- Generator: Adobe Illustrator 15.0.0, SVG Export Plug-In . SVG Version: 6.00 Build 0)  -->
<!DOCTYPE svg PUBLIC "-//W3C//DTD SVG 1.1//EN" "http://www.w3.org/Graphics/SVG/1.1/DTD/svg11.dtd">
<svg version="1.1" id="Calque_1" xmlns="http://www.w3.org/2000/svg" xmlns:xlink="http://www.w3.org/1999/xlink" x="0px" y="0px"
	 width="151px" height="138px" viewBox="0 0 151 138" enable-background="new 0 0 151 138" xml:space="preserve">
<g>
	<g>
		<circle fill="none" cx="75.482" cy="63.501" r="45.265"/>
		<path fill="#231F20" d="M107.494,105.857l2.15-1.59l0.571,0.775l-5.231,3.868l-0.573-0.774l2.161-1.599l-4.652-6.291l0.923-0.683
			L107.494,105.857z"/>
		<path fill="#231F20" d="M102.268,110.508l-1.697-3.262l-3.771,1.962l1.698,3.261L97.479,113l-4.057-7.796l1.018-0.53l1.902,3.655
			l3.771-1.962l-1.902-3.654l1.018-0.531l4.057,7.797L102.268,110.508z"/>
		<path fill="#231F20" d="M88.898,111.096l3.229-1.076l-1.001-3.006l-3.612,1.203l-0.301-0.902l4.701-1.564l2.775,8.338
			l-4.516,1.503l-0.301-0.901l3.427-1.143l-0.877-2.636l-3.229,1.075L88.898,111.096z"/>
		<path fill="#231F20" d="M76.512,112.713c0.168,1.217,0.37,2.691,0.461,3.771l0.024-0.002c0.228-1.041,0.485-2.176,0.826-3.42
			l1.19-4.381l0.857-0.072l1.779,4.053c0.521,1.213,0.953,2.303,1.287,3.322l0.025-0.004c-0.066-1.094-0.123-2.555-0.156-3.887
			l-0.08-3.775l1.078-0.09l0.123,8.812l-1.441,0.121l-1.85-4.112c-0.455-1.048-0.822-1.986-1.132-2.876l-0.026,0.002
			c-0.16,0.903-0.391,1.892-0.688,3.029l-1.205,4.366l-1.441,0.121l-1.282-8.715l1.117-0.094L76.512,112.713z"/>
		<path fill="#231F20" d="M71.95,111.425l1.196-2.651l1.167,0.123l-3.901,8.42l-1.347-0.143l-2.06-9.047l1.205,0.126l0.644,2.845
			L71.95,111.425z M68.98,112.002l0.603,2.605c0.134,0.592,0.209,1.123,0.285,1.643l0.026,0.002c0.183-0.492,0.37-1.021,0.607-1.534
			l1.122-2.437L68.98,112.002z"/>
		<path fill="#231F20" d="M63.836,116.23c-0.581-0.049-1.407-0.189-2.149-0.391c-1.17-0.314-1.877-0.749-2.268-1.354
			c-0.313-0.488-0.409-1.135-0.229-1.803c0.299-1.107,1.204-1.66,2.166-1.726l0.01-0.038c-0.581-0.398-0.808-1.107-0.772-2.044
			c0.042-1.258,0.061-2.129-0.027-2.504l1.133,0.305c0.071,0.289,0.066,1.058,0.008,2.177c-0.063,1.237,0.283,1.804,1.268,2.108
			l1.032,0.278l0.99-3.676l1.095,0.295L63.836,116.23z M63.782,112.072l-1.12-0.303c-1.17-0.314-2.086,0.127-2.347,1.096
			c-0.295,1.096,0.369,1.787,1.527,2.1c0.528,0.143,0.904,0.203,1.106,0.203L63.782,112.072z"/>
		<path fill="#231F20" d="M56.121,114.044l-1.039-0.455l1.701-3.882l-0.036-0.016c-0.351,0.217-0.691,0.408-1.01,0.582l-3.784,1.943
			l-1.29-0.564l4.41-2.139l-1.11-6.01l1.229,0.539l0.908,5.107l1.164-0.543l1.344-3.067l1.039,0.454L56.121,114.044z"/>
		<path fill="#231F20" d="M47.776,109.971l2.845-4.371c1.067-1.641,0.79-2.815-0.194-3.457c-1.082-0.703-2.261-0.444-3.314,1.172
			l-2.846,4.373l-0.962-0.625l2.804-4.309c1.472-2.262,3.262-2.404,4.857-1.365c1.509,0.98,2.09,2.573,0.597,4.869l-2.824,4.34
			L47.776,109.971z"/>
		<path fill="#231F20" d="M41.032,105.09c-0.466-0.301-1.049-0.725-1.724-1.338c-0.83-0.754-1.263-1.498-1.333-2.197
			c-0.067-0.623,0.141-1.298,0.667-1.877c0.535-0.589,1.129-0.895,1.764-0.934c0.883-0.061,1.816,0.347,2.636,1.092
			c0.25,0.229,0.474,0.447,0.623,0.672l2.366-2.605l0.84,0.764L41.032,105.09z M43.042,101.191c-0.14-0.215-0.354-0.443-0.633-0.697
			c-1.013-0.921-2.086-0.98-2.883-0.102c-0.789,0.867-0.548,1.844,0.368,2.676c0.366,0.334,0.672,0.559,0.852,0.65L43.042,101.191z"
			/>
		<path fill="#231F20" d="M33.263,97.322l-0.682-0.924l6.302-4.659l-2.233-3.021l0.766-0.564l2.915,3.941L33.263,97.322z"/>
		<path fill="#231F20" d="M28.818,90.795l7.532-4.521l0.59,0.982l-7.532,4.521L28.818,90.795z"/>
		<path fill="#231F20" d="M27.578,88.402c-0.314-0.4-0.718-1.09-1.047-1.799c-0.476-1.029-0.604-1.775-0.426-2.445
			c0.117-0.557,0.47-1.036,1.097-1.326c0.781-0.359,1.696-0.15,2.375,0.541l0.036-0.018c-0.173-0.838,0.044-2.017,1.228-2.563
			c0.687-0.317,1.345-0.291,1.915-0.051c0.761,0.309,1.413,1.099,2.014,2.399c0.328,0.711,0.532,1.277,0.643,1.643L27.578,88.402z
			 M30.369,85.865l-0.432-0.936c-0.498-1.078-1.373-1.449-2.142-1.095c-0.923,0.427-0.979,1.301-0.499,2.342
			c0.219,0.474,0.38,0.729,0.492,0.88L30.369,85.865z M34.18,84.104c-0.063-0.229-0.182-0.519-0.352-0.886
			c-0.492-1.065-1.336-1.866-2.496-1.332c-1.076,0.498-1.106,1.646-0.587,2.771l0.394,0.853L34.18,84.104z"/>
		<path fill="#231F20" d="M24.4,81.029c-0.26-0.521-0.568-1.301-0.784-2.039c-0.338-1.164-0.335-1.992-0.022-2.641
			c0.255-0.522,0.759-0.94,1.422-1.135c1.102-0.32,2.044,0.165,2.6,0.954l0.038-0.011c0.04-0.704,0.527-1.268,1.346-1.723
			c1.097-0.619,1.852-1.056,2.126-1.326l0.328,1.127c-0.21,0.212-0.869,0.606-1.855,1.139c-1.091,0.589-1.395,1.18-1.145,2.182
			l0.299,1.024l3.655-1.063l0.317,1.09L24.4,81.029z M27.927,78.823l-0.324-1.114c-0.338-1.164-1.192-1.717-2.156-1.438
			c-1.089,0.317-1.335,1.244-1,2.396c0.153,0.524,0.296,0.878,0.401,1.051L27.927,78.823z"/>
		<path fill="#231F20" d="M28.015,71.04l2.855,0.563l0.145,1.166l-9.092-1.893l-0.167-1.348l8.353-4.061l0.149,1.203l-2.627,1.273
			L28.015,71.04z M26.777,68.277l-2.403,1.178c-0.546,0.266-1.047,0.459-1.536,0.652l0.003,0.024
			c0.521,0.066,1.08,0.129,1.633,0.243l2.63,0.54L26.777,68.277z"/>
		<path fill="#231F20" d="M21.497,64.213c-0.085-0.576-0.135-1.413-0.109-2.182c0.041-1.211,0.302-1.998,0.802-2.516
			c0.405-0.418,1.013-0.658,1.704-0.635c1.146,0.039,1.891,0.793,2.172,1.716l0.039,0.001c0.257-0.656,0.896-1.039,1.815-1.217
			c1.234-0.246,2.088-0.426,2.433-0.597l-0.039,1.172c-0.265,0.135-1.015,0.306-2.117,0.503c-1.22,0.221-1.692,0.688-1.766,1.715
			l-0.036,1.068l3.804,0.127l-0.038,1.134L21.497,64.213z M25.534,63.213l0.039-1.159c0.041-1.212-0.598-2.003-1.601-2.036
			c-1.133-0.037-1.656,0.767-1.696,1.965c-0.019,0.547,0.008,0.927,0.054,1.123L25.534,63.213z"/>
		<path fill="#231F20" d="M30.828,56.031l-3.668-0.656l-5.468,1.854l0.229-1.282l2.604-0.792c0.711-0.204,1.286-0.378,1.937-0.54
			l0.005-0.026c-0.523-0.332-1.032-0.741-1.627-1.191l-2.163-1.671l0.225-1.257l4.447,3.774l3.68,0.659L30.828,56.031z"/>
	</g>
	<g>
		<circle fill="none" cx="75.482" cy="63.5" r="45.475"/>
		<path fill="#231F20" d="M116.675,28.196c0.411,0.377,0.915,0.897,1.479,1.62c0.691,0.888,0.992,1.7,0.941,2.403
			c-0.041,0.629-0.361,1.261-0.98,1.745c-0.631,0.49-1.271,0.691-1.906,0.622c-0.885-0.091-1.738-0.654-2.424-1.532
			c-0.209-0.269-0.391-0.524-0.5-0.771l-2.789,2.173l-0.701-0.898L116.675,28.196z M114.02,31.71c0.101,0.237,0.272,0.5,0.506,0.8
			c0.847,1.084,1.898,1.327,2.838,0.595c0.931-0.725,0.857-1.732,0.095-2.713c-0.306-0.392-0.569-0.667-0.731-0.791L114.02,31.71z"
			/>
		<path fill="#231F20" d="M116.35,37.796l-2.859,0.611l-0.596-1.017l9.144-1.857l0.688,1.177l-6.103,7.058l-0.615-1.051l1.923-2.217
			L116.35,37.796z M118.587,39.858l1.75-2.041c0.397-0.46,0.784-0.837,1.159-1.209l-0.014-0.022
			c-0.508,0.145-1.047,0.309-1.604,0.422l-2.644,0.543L118.587,39.858z"/>
		<path fill="#231F20" d="M124.439,42.333l-1.037-2.474l0.893-0.375l2.531,6.023l-0.895,0.375l-1.045-2.486l-7.242,3.043
			l-0.445-1.062L124.439,42.333z"/>
		<path fill="#231F20" d="M127.016,49.722l-0.666-2.599l0.938-0.241l1.62,6.328l-0.938,0.24l-0.669-2.612l-7.608,1.948l-0.284-1.115
			L127.016,49.722z"/>
		<path fill="#231F20" d="M129.092,55.118c0.166,0.562,0.334,1.387,0.418,2.155c0.133,1.211-0.016,2.031-0.439,2.618
			c-0.344,0.472-0.914,0.798-1.604,0.874c-1.146,0.123-1.995-0.521-2.405-1.4l-0.039,0.004c-0.162,0.691-0.744,1.162-1.633,1.471
			c-1.193,0.419-2.019,0.72-2.339,0.939l-0.125-1.173c0.244-0.172,0.966-0.448,2.034-0.802c1.184-0.393,1.585-0.924,1.514-1.957
			l-0.115-1.068l-3.806,0.414l-0.122-1.133L129.092,55.118z M125.215,56.687l0.127,1.159c0.133,1.211,0.879,1.908,1.883,1.799
			c1.133-0.123,1.539-0.998,1.408-2.196c-0.06-0.548-0.141-0.921-0.213-1.11L125.215,56.687z"/>
	</g>
	<polygon fill="#DD2A2C" points="125.617,86.438 121.973,86.54 119.988,89.601 118.766,86.165 115.242,85.226 118.131,83 
		117.938,79.358 120.945,81.419 124.35,80.108 123.319,83.606 	"/>
	<g>
		<path fill="#DD2A2C" d="M94.439,47.603c0-4.194-1.188-7.275-3.566-9.242c-2.379-1.966-5.965-2.949-10.758-2.949H69.834v24.549
			h10.281C89.666,59.962,94.439,55.842,94.439,47.603z"/>
		<path fill="#DD2A2C" d="M53.093,31.071C43.114,38.215,36.61,49.904,36.61,63.113c0,13.209,6.504,24.897,16.483,32.042V31.071z"/>
		<path fill="#DD2A2C" d="M111.66,46.416c0.016,0.392,0.027,0.787,0.027,1.188c0,3.671-0.668,7.014-2,10.028
			c-1.334,3.016-3.276,5.609-5.83,7.781c-2.556,2.172-5.719,3.848-9.492,5.028c-3.773,1.179-8.102,1.769-12.983,1.769H69.834v29.804
			c2.005,0.315,4.06,0.479,6.154,0.479c21.749,0,39.379-17.632,39.379-39.379C115.367,57.143,114.037,51.485,111.66,46.416z"/>
	</g>
</g>
</svg>
